HIERARCHY
ROOT Hips
{
	OFFSET -60.712399 36.247601 12.323000 
	CHANNELS 6 Xposition Yposition Zposition Zrotation Xrotation Yrotation
	JOINT LeftHip
	{
		OFFSET 3.430000 0.000000 0.000000 
		CHANNELS 6 Xposition Yposition Zposition Zrotation Xrotation Yrotation
		JOINT LeftKnee
		{
			OFFSET 0.000000 -18.469999 0.000000 
			CHANNELS 6 Xposition Yposition Zposition Zrotation Xrotation Yrotation
			JOINT LeftAnkle
			{
				OFFSET 0.000000 -17.950001 0.000000 
				CHANNELS 6 Xposition Yposition Zposition Zrotation Xrotation Yrotation
				End Site
				{
					OFFSET 0.000000 -3.120000 0.000000 
				}
			}
		}
	}
	JOINT RightHip
	{
		OFFSET -3.430000 0.000000 0.000000 
		CHANNELS 6 Xposition Yposition Zposition Zrotation Xrotation Yrotation
		JOINT RightKnee
		{
			OFFSET 0.000000 -18.469999 0.000000 
			CHANNELS 6 Xposition Yposition Zposition Zrotation Xrotation Yrotation
			JOINT RightAnkle
			{
				OFFSET 0.000000 -17.950001 0.000000 
				CHANNELS 6 Xposition Yposition Zposition Zrotation Xrotation Yrotation
				End Site
				{
					OFFSET 0.000000 -3.120000 0.000000 
				}
			}
		}
	}
	JOINT Chest
	{
		OFFSET 0.000000 4.570000 0.000000 
		CHANNELS 6 Xposition Yposition Zposition Zrotation Xrotation Yrotation
		JOINT CS_BVH
		{
			OFFSET 0.000000 6.570000 0.000000 
			CHANNELS 6 Xposition Yposition Zposition Zrotation Xrotation Yrotation
			JOINT LeftCollar
			{
				OFFSET 1.060000 4.190000 1.760000 
				CHANNELS 6 Xposition Yposition Zposition Zrotation Xrotation Yrotation
				JOINT LeftShoulder
				{
					OFFSET 5.810000 0.000000 0.000000 
					CHANNELS 6 Xposition Yposition Zposition Zrotation Xrotation Yrotation
					JOINT LeftElbow
					{
						OFFSET 0.000000 -12.080000 0.000000 
						CHANNELS 6 Xposition Yposition Zposition Zrotation Xrotation Yrotation
						JOINT LeftWrist
						{
							OFFSET 0.000000 -9.820000 0.000000 
							CHANNELS 6 Xposition Yposition Zposition Zrotation Xrotation Yrotation
							End Site
							{
								OFFSET 0.000000 -7.370000 0.000000 
							}
						}
					}
				}
			}
			JOINT RightCollar
			{
				OFFSET -1.060000 4.190000 1.760000 
				CHANNELS 6 Xposition Yposition Zposition Zrotation Xrotation Yrotation
				JOINT RightShoulder
				{
					OFFSET -6.060000 0.000000 0.000000 
					CHANNELS 6 Xposition Yposition Zposition Zrotation Xrotation Yrotation
					JOINT RightElbow
					{
						OFFSET 0.000000 -11.080000 0.000000 
						CHANNELS 6 Xposition Yposition Zposition Zrotation Xrotation Yrotation
						JOINT RightWrist
						{
							OFFSET 0.000000 -9.820000 0.000000 
							CHANNELS 6 Xposition Yposition Zposition Zrotation Xrotation Yrotation
							End Site
							{
								OFFSET 0.000000 -7.140010 0.000000 
							}
						}
					}
				}
			}
			JOINT Neck
			{
				OFFSET 0.000000 4.050000 0.000000 
				CHANNELS 6 Xposition Yposition Zposition Zrotation Xrotation Yrotation
				JOINT Head
				{
					OFFSET 0.000000 5.190000 0.000000 
					CHANNELS 6 Xposition Yposition Zposition Zrotation Xrotation Yrotation
					End Site
					{
						OFFSET 0.000000 4.140010 0.000000 
					}
				}
			}
		}
	}
}
MOTION
Frames: 4
Frame Time: 0.033333
7.345661 46.867802 59.114601 6.156450 4.156580 132.613998 3.430000 -0.000000 0.000000 6.082020 -6.863000 9.476700 0.000000 -18.469999 -0.000000 -9.598570 10.139200 -6.955890 0.000000 -17.950001 -0.000000 -23.152399 31.240700 8.802110 -3.430000 0.000000 0.000000 -12.865800 -13.518100 -7.764690 0.000000 -18.469999 -0.000000 6.213630 35.220901 -4.421850 0.000000 -17.950001 -0.000000 18.906900 19.227800 -5.249980 -0.000000 4.570000 0.000000 -0.130313 3.991380 1.095570 -0.000000 6.570000 0.000000 1.625390 7.998890 2.175040 1.060000 4.190000 1.760000 15.300000 11.030100 -2.563040 5.810000 -0.000000 0.000000 145.794998 -64.619202 107.612000 -0.000000 -12.080000 -0.000000 24.183399 -75.713303 -22.123501 -0.000000 -9.820000 0.000000 33.488300 20.542200 -3.683170 -1.060000 4.190000 1.760000 3.110440 10.909600 13.615000 -6.060000 0.000000 0.000000 -153.893005 -37.525799 -98.056099 -0.000000 -11.080000 -0.000000 20.505501 -60.826302 44.647701 -0.000000 -9.820000 -0.000000 -52.243900 13.073900 7.348270 -0.000000 4.050000 0.000000 3.111340 -7.943970 3.600860 -0.000000 5.190000 0.000000 -5.273480 -2.766220 1.694950 
9.373161 44.737202 59.132805 6.244410 3.670080 134.156006 3.430000 -0.000000 0.000000 4.949940 -4.932700 8.712690 0.000000 -18.469999 -0.000000 -7.344590 7.842370 -3.631410 0.000000 -17.950001 -0.000000 -23.425100 32.992599 9.206860 -3.430000 0.000000 0.000000 -15.275400 -14.115600 -8.033980 0.000000 -18.469999 -0.000000 3.635680 27.852100 -3.865060 0.000000 -17.950001 -0.000000 21.049500 21.358900 -6.240260 -0.000000 4.570000 0.000000 0.040048 3.660060 0.772847 -0.000000 6.570000 0.000000 2.049110 7.337210 1.493780 1.060000 4.190000 1.760000 13.957000 9.958860 -3.709590 5.810000 -0.000000 0.000000 142.167999 -68.796600 104.278000 -0.000000 -12.080000 -0.000000 29.197500 -78.566002 -19.634800 -0.000000 -9.820000 0.000000 35.997501 19.093399 -3.926330 -1.060000 4.190000 1.760000 5.953440 10.298000 13.170000 -6.060000 0.000000 0.000000 -149.757004 -40.376400 -95.753098 -0.000000 -11.080000 -0.000000 26.126801 -65.295898 53.316799 -0.000000 -9.820000 -0.000000 -53.227901 12.252200 7.117370 -0.000000 4.050000 0.000000 2.794860 -6.666450 3.445200 -0.000000 5.190000 0.000000 -3.884880 -3.022670 1.586150 
11.394901 42.278599 59.311501 6.149071 3.598541 136.214996 3.430000 -0.000000 0.000000 4.730830 -8.920330 9.658550 0.000000 -18.469999 -0.000000 -7.723660 20.346800 0.713911 0.000000 -17.950001 -0.000000 -9.707050 23.178400 3.569160 -3.430000 0.000000 0.000000 -18.000500 -14.682600 -8.026320 0.000000 -18.469999 -0.000000 1.467800 22.149799 -1.657180 0.000000 -17.950001 -0.000000 23.271700 23.752100 -7.433990 -0.000000 4.570000 0.000000 -0.479124 3.432240 0.370730 -0.000000 6.570000 0.000000 1.947070 6.862690 0.666465 1.060000 4.190000 1.760000 9.485930 9.110630 -7.087020 5.810000 -0.000000 0.000000 138.487000 -70.146103 97.072899 -0.000000 -12.080000 -0.000000 31.893999 -79.331703 -16.324301 -0.000000 -9.820000 0.000000 38.688202 19.300200 -4.460570 -1.060000 4.190000 1.760000 11.335000 10.206900 13.532500 -6.060000 0.000000 0.000000 -146.710999 -41.336601 -92.483101 -0.000000 -11.080000 -0.000000 30.705200 -68.467400 57.951599 -0.000000 -9.820000 -0.000000 -54.311199 11.115900 6.741960 -0.000000 4.050000 0.000000 2.933380 -4.850880 2.707480 -0.000000 5.190000 0.000000 -3.229830 -4.539050 1.938260 
13.408901 39.541096 59.689804 7.367650 4.819140 138.279999 3.430000 -0.000000 0.000000 6.978920 -7.407930 12.677000 0.000000 -18.469999 -0.000000 -10.202900 28.091400 3.889410 0.000000 -17.950001 -0.000000 7.991010 -5.655350 -1.092250 -3.430000 0.000000 0.000000 -20.441299 -14.180200 -7.707040 0.000000 -18.469999 -0.000000 0.456555 20.220301 4.587990 0.000000 -17.950001 -0.000000 26.692801 24.556700 -8.573090 -0.000000 4.570000 0.000000 -0.956715 3.869620 0.138630 -0.000000 6.570000 0.000000 1.638570 7.743710 0.121424 1.060000 4.190000 1.760000 6.784050 10.297900 -10.760700 5.810000 -0.000000 0.000000 136.979004 -71.037498 94.493301 -0.000000 -12.080000 -0.000000 31.638300 -80.204102 -11.813300 -0.000000 -9.820000 0.000000 36.987900 16.822800 -3.646890 -1.060000 4.190000 1.760000 14.997300 11.761500 13.467900 -6.060000 0.000000 0.000000 -144.123993 -41.001202 -92.992302 -0.000000 -11.080000 -0.000000 35.801800 -70.367500 60.429501 -0.000000 -9.820000 -0.000000 -52.823299 12.240100 7.038170 -0.000000 4.050000 0.000000 3.081840 -2.388810 1.640810 -0.000000 5.190000 0.000000 -2.892230 -6.986760 1.889710 
